<svg width="17" height="22" viewBox="0 0 17 22" fill="none" xmlns="http://www.w3.org/2000/svg">
<path d="M8.41589 10.5767C10.8297 10.5767 12.7867 8.29547 12.7867 5.48143C12.7867 2.66732 12.1442 0.386108 8.41589 0.386108C4.68756 0.386108 4.04492 2.66732 4.04492 5.48143C4.04492 8.29547 6.00192 10.5767 8.41589 10.5767Z" fill="#C8C8C8"/>
<path d="M0.158957 18.3568C0.158304 18.1846 0.157651 18.3083 0.158957 18.3568V18.3568Z" fill="#C8C8C8"/>
<path d="M16.6709 18.4912C16.6729 18.4441 16.6716 18.1643 16.6709 18.4912V18.4912Z" fill="#C8C8C8"/>
<path d="M16.6609 18.1509C16.58 13.2487 15.9129 11.8519 10.8082 10.9677C10.8082 10.9677 10.0897 11.8464 8.41486 11.8464C6.74004 11.8464 6.02136 10.9677 6.02136 10.9677C0.972397 11.8422 0.264755 13.2183 0.17171 17.9916C0.16408 18.3814 0.160544 18.4019 0.15918 18.3566C0.15949 18.4414 0.159862 18.5982 0.159862 18.8717C0.159862 18.8717 1.37516 21.223 8.41486 21.223C15.4544 21.223 16.6699 18.8717 16.6699 18.8717C16.6699 18.696 16.67 18.5738 16.6702 18.4907C16.6688 18.5187 16.6661 18.4644 16.6609 18.1509Z" fill="#C8C8C8"/>
</svg>
