<svg width="16" height="15" viewBox="0 0 16 15" fill="none" xmlns="http://www.w3.org/2000/svg">
<path d="M12.4957 8.28418C10.7135 8.28418 9.26367 9.67569 9.26367 11.3861C9.26367 13.0965 10.7135 14.4881 12.4957 14.4882C14.2778 14.4881 15.7277 13.0965 15.7277 11.3861C15.7277 9.67569 14.2778 8.28418 12.4957 8.28418ZM12.4957 12.2809C11.9807 12.2809 11.5633 11.8803 11.5633 11.3861C11.5633 10.892 11.9808 10.4914 12.4957 10.4914C13.0106 10.4914 13.428 10.892 13.428 11.3861C13.4279 11.8803 13.0104 12.2809 12.4957 12.2809Z" fill="#C8C8C8"/>
<path d="M4.107 6.43541C5.88915 6.4353 7.33901 5.0438 7.33901 3.33337C7.33901 2.50487 7.00287 1.72585 6.39235 1.14001C5.78194 0.55406 4.97026 0.231445 4.107 0.231445C4.10689 0.231445 4.10689 0.231445 4.10689 0.231445C3.24364 0.231445 2.43196 0.55406 1.82155 1.14001C1.21114 1.72585 0.875 2.50487 0.875 3.33337C0.875 5.0438 2.32486 6.4353 4.107 6.43541ZM4.107 2.43862C4.62187 2.43862 5.03927 2.83923 5.03927 3.33337C5.03927 3.82752 4.62187 4.22823 4.107 4.22823C3.59214 4.22823 3.17473 3.82752 3.17473 3.33337C3.17473 2.83923 3.59214 2.43862 4.107 2.43862Z" fill="#C8C8C8"/>
<path d="M15.73 1.54387C15.73 1.19331 15.5877 0.86373 15.3294 0.615842C15.0712 0.367953 14.7278 0.231445 14.3625 0.231445C13.9973 0.231445 13.6539 0.367844 13.3954 0.615842L1.27581 12.2477C0.742698 12.7593 0.742698 13.592 1.27581 14.1038C1.5341 14.3516 1.87749 14.4883 2.24287 14.4883C2.60814 14.4883 2.95154 14.3518 3.20982 14.1038L15.3294 2.47191C15.5877 2.22402 15.73 1.89444 15.73 1.54387Z" fill="#C8C8C8"/>
</svg>
